<?xml version="1.0" standalone="no"?>
<!DOCTYPE svg PUBLIC "-//W3C//DTD SVG 20010904//EN"
 "http://www.w3.org/TR/2001/REC-SVG-20010904/DTD/svg10.dtd">
<svg version="1.0" xmlns="http://www.w3.org/2000/svg"
 width="1007.000000pt" height="1280.000000pt" viewBox="0 0 1007.000000 1280.000000"
 preserveAspectRatio="xMidYMid meet">
<metadata>
Created by potrace 1.15, written by Peter Selinger 2001-2017
</metadata>
<g transform="translate(0.000000,1280.000000) scale(0.100000,-0.100000)"
fill="#000000" stroke="none">
<path d="M2981 12700 c-59 -206 -14 -471 121 -706 144 -252 326 -422 798 -744
285 -194 381 -270 511 -399 233 -232 330 -443 316 -690 -3 -58 -12 -128 -19
-155 l-14 -49 -149 -77 c-354 -181 -584 -361 -737 -576 -108 -152 -192 -351
-229 -539 -21 -105 -18 -443 4 -565 48 -258 153 -568 286 -840 23 -46 41 -85
41 -87 0 -6 -444 -3 -935 7 -706 14 -1169 32 -1874 71 -408 23 -434 22 -536
-26 -117 -56 -217 -184 -244 -313 -15 -71 -15 -3114 -1 -3287 43 -498 193
-931 466 -1342 213 -322 540 -637 868 -838 361 -221 737 -351 1156 -400 184
-22 1967 -22 2150 0 644 75 1209 347 1665 800 423 420 691 930 795 1514 11 63
20 116 20 118 0 2 17 -8 38 -21 256 -162 653 -261 962 -241 558 35 1037 308
1342 764 285 427 361 950 211 1451 -43 144 -151 364 -240 490 -87 122 -282
316 -403 402 -529 376 -1223 421 -1797 117 l-93 -49 0 248 c0 261 -6 306 -50
392 -34 66 -124 156 -192 189 -105 53 -135 56 -445 38 -153 -9 -376 -22 -495
-28 l-217 -11 -68 38 c-375 208 -691 535 -887 918 -146 284 -214 675 -176
1011 11 94 49 288 72 365 l14 44 169 71 c94 40 229 101 301 138 587 299 914
734 914 1216 0 236 -63 435 -204 651 -236 361 -643 601 -1246 739 -119 27
-367 71 -395 71 -5 0 69 -33 165 -74 470 -197 675 -307 882 -475 222 -179 388
-430 443 -671 22 -97 23 -262 1 -354 -58 -245 -277 -502 -582 -682 -89 -52
-329 -174 -344 -174 -6 0 -10 39 -10 99 0 178 -68 376 -197 570 -110 165 -376
413 -572 535 -49 30 -208 121 -353 201 -343 191 -492 290 -625 418 -133 129
-191 205 -257 342 -68 140 -88 212 -95 355 l-6 115 -24 -85z m1597 -3252 c-5
-29 -9 -132 -9 -228 -1 -328 57 -589 196 -875 228 -472 617 -816 1106 -980
129 -43 130 -44 88 -49 -120 -15 -1654 -50 -1903 -44 l-130 3 -28 130 c-51
239 -87 439 -103 585 -22 189 -16 472 13 605 70 322 237 564 527 764 67 47
231 140 246 141 3 0 2 -24 -3 -52z m4075 -3291 c249 -66 482 -223 637 -429 78
-104 163 -276 197 -403 25 -93 27 -114 27 -300 0 -219 -7 -260 -73 -431 -108
-279 -342 -519 -626 -641 -257 -110 -565 -123 -827 -34 -170 57 -308 142 -440
270 l-88 84 0 754 0 754 74 74 c164 161 357 265 586 316 130 29 398 22 533
-14z"/>
<path d="M1720 12236 c0 -2 29 -18 65 -35 158 -78 278 -268 292 -466 14 -203
-67 -430 -263 -735 -48 -74 -125 -193 -171 -265 -152 -237 -228 -408 -274
-616 -19 -85 -23 -134 -23 -269 0 -179 9 -242 55 -394 38 -125 93 -239 168
-352 65 -99 115 -158 309 -365 74 -79 153 -170 178 -204 231 -325 224 -761
-19 -1097 -31 -43 -54 -78 -51 -78 15 0 128 86 178 136 241 241 337 615 245
954 -42 157 -127 302 -341 578 -150 195 -189 252 -237 349 -67 136 -99 263
-108 434 -11 209 36 386 178 664 47 94 133 262 190 375 158 311 202 461 202
690 -1 162 -21 250 -85 373 -54 103 -166 219 -255 265 -69 36 -233 77 -233 58z"/>
<path d="M62 920 c-55 -34 -77 -112 -48 -168 22 -42 513 -523 588 -576 85 -60
211 -118 318 -148 l85 -23 2880 0 c2718 0 2884 1 2949 18 37 9 103 31 145 48
148 59 209 106 491 383 146 143 273 273 284 288 29 44 18 120 -23 161 l-31 32
-3803 2 c-3799 3 -3802 3 -3835 -17z"/>
</g>
</svg>
